# xmcd
#
# Track frame offsets:
#	150
#	28402
#	44904
#	66586
#	86083
#	103135
#	126742
#	151137
#	164121
#	181296
#	202025
#	219835
#	240917
#	266049
#	286046
#	299241
#
# Disc length: 4192 seconds
#
# Revision: 1
# Processed by: cddbd v1.5.2PL0 Copyright (c) Steve Scherf et al.
# Submitted via: audiograbber 1.83.01
#
DISCID=0a105e10
DTITLE=Diverse kunstnere Country - Rythm Country Og Blues
DYEAR=2000
DGENRE=Country
TTITLE0=Patches - Georg Jones and B. B. King
TTITLE1=The Weights - The Staples Singers and Marty Stuart
TTITLE2=Southern Nights - Chet Atkinds and Allen Toussaint
TTITLE3=Since I Fell For You - Natalie Cole and Reba Mcentire
TTITLE4=Chain Off Fools - Clint Black and Pointer Sisters
TTITLE5=Rainy Night In Georgia - Sam More and Conway Twitty
TTITLE6=When Something Is Wrong With My Baby - Pattie Labele and Travis Tritt
TTITLE7=Somthing Else - Little Richard and Tanya Tucker
TTITLE8=I Fall To Pieces - Aaron Neville and Trisha Yearwood
TTITLE9=Funny Haw Times Slips Away - Al Green and Lyle Lovett
TTITLE10=Ain´t Nothing Like The Real Thing - Vince Gill and Gladys Knight
TTITLE11=Don´t Take Away My Heaven - Aaron Neville
TTITLE12=I Owe You One - Aaron Neville
TTITLE13=Don´t Fall Apart On Me Tonight -  Aaron Neville
TTITLE14=You Never Can Tell - Aaron Neville
TTITLE15=The Grand Tour - Aaron Neville
EXTD=
EXTT0=
EXTT1=
EXTT2=
EXTT3=
EXTT4=
EXTT5=
EXTT6=
EXTT7=
EXTT8=
EXTT9=
EXTT10=
EXTT11=
EXTT12=
EXTT13=
EXTT14=
EXTT15=
PLAYORDER=
